<?xml version="1.0" encoding="UTF-8" standalone="no"?>
<!-- Generator: Adobe Illustrator 17.0.0, SVG Export Plug-In . SVG Version: 6.00 Build 0)  -->

<svg
   version="1.1"
   id="Lager_1"
   x="0px"
   y="0px"
   width="50"
   height="50"
   viewBox="0 0 49.999999 49.999997"
   enable-background="new 0 0 841.89 595.28"
   xml:space="preserve"
   sodipodi:docname="Logo-vektor.svg"
   inkscape:version="1.1.2 (0a00cf5339, 2022-02-04)"
   xmlns:inkscape="http://www.inkscape.org/namespaces/inkscape"
   xmlns:sodipodi="http://sodipodi.sourceforge.net/DTD/sodipodi-0.dtd"
   xmlns="http://www.w3.org/2000/svg"
   xmlns:svg="http://www.w3.org/2000/svg"><defs
   id="defs143" /><sodipodi:namedview
   id="namedview141"
   pagecolor="#505050"
   bordercolor="#eeeeee"
   borderopacity="1"
   inkscape:pageshadow="0"
   inkscape:pageopacity="0"
   inkscape:pagecheckerboard="0"
   showgrid="false"
   fit-margin-top="0"
   fit-margin-left="0"
   fit-margin-right="0"
   fit-margin-bottom="0"
   inkscape:zoom="16.591969"
   inkscape:cx="25.735343"
   inkscape:cy="29.562496"
   inkscape:window-width="2512"
   inkscape:window-height="1392"
   inkscape:window-x="1968"
   inkscape:window-y="48"
   inkscape:window-maximized="1"
   inkscape:current-layer="Lager_1" />
<g
   id="g138"
   transform="matrix(0.08944077,0,0,0.08857342,-12.65036,-1.3693636)">
	<g
   id="g136">
		<path
   d="m 244.207,433.371 -23.911,50.546 -9.581,-50.546 h -16.617 l -11.02,25.083 -10.935,-25.083 h -16.875 l -9.901,52.234 h 16.358 l 3.874,-21.978 9.386,21.978 h 12.398 l 9.385,-21.978 3.874,21.978 h 18.855 1.121 18.165 l 3.444,-7.643 h 19.545 l 3.186,7.643 h 22.04 l -24.366,-52.234 z m 2.497,33.761 5.683,-13.138 5.253,13.138 z"
   id="path2" />
		<polygon
   points="308.694,474.298 312.741,469.202 323.074,485.605 347.956,485.605 328.067,457.976 347.526,434.963 324.968,432.336 308.694,452.161 308.694,433.371 287.945,433.371 287.945,485.605 308.694,485.605 "
   id="polygon4" />
		<polygon
   points="349.075,433.371 349.075,485.605 390.749,485.605 392.213,471.751 369.138,471.751 369.138,465.222 386.529,465.222 386.529,452.64 369.138,452.64 369.138,447.226 388.94,447.226 388.94,433.371 "
   id="polygon6" />
		<path
   d="m 440.6,461.399 c 2.669,-2.548 4.306,-6.529 4.306,-10.591 0,-5.653 -2.326,-10.191 -6.802,-13.297 -4.82,-3.345 -12.226,-4.858 -23.506,-4.858 -3.357,0 -10.591,0.319 -16.101,0.718 0,0 -1.119,0.08 -2.668,0.158 l -1.378,0.079 v 51.997 h 20.75 v -15.767 h 4.219 l 7.663,15.767 h 23.592 L 437.07,463.789 c 1.809,-0.957 2.584,-1.516 3.53,-2.39 z m -19.975,-3.902 H 415.2 v -10.352 c 3.704,-0.079 5.08,0 6.716,0.639 1.893,0.715 3.013,2.31 3.013,4.22 0.001,2.627 -2.238,5.493 -4.304,5.493 z"
   id="path8" />
		<path
   d="m 491.742,459.011 c -2.238,-1.911 -6.199,-4.3 -10.589,-6.53 -1.981,-1.034 -3.015,-1.592 -3.358,-1.831 -1.033,-0.718 -1.551,-1.432 -1.465,-2.15 0.086,-1.353 1.465,-2.149 3.443,-2.149 3.188,0 7.233,1.354 12.228,3.981 l 3.358,-13.696 c -8.266,-3.662 -13.434,-4.857 -21.182,-4.857 -4.476,0 -9.986,1.354 -13.688,3.346 -5.424,2.865 -8.352,7.565 -8.352,13.138 0,6.131 3.013,10.829 8.954,13.936 l 2.238,1.273 4.648,2.39 c 0.518,0.317 1.206,0.716 1.895,1.193 1.465,0.955 1.982,1.671 1.982,2.628 0,1.831 -1.809,2.866 -4.564,2.468 -5.512,-0.716 -10.159,-2.866 -15.842,-7.164 l -1.723,16.242 c 8.008,4.061 15.411,5.973 23.16,5.973 14.379,0 23.85,-7.087 23.85,-17.758 10e-4,-3.585 -2.065,-7.965 -4.993,-10.433 z"
   id="path10" />
		<path
   d="m 549.516,453.037 c 0,-5.812 -2.497,-11.225 -7.06,-14.89 -4.907,-4.061 -11.107,-5.494 -23.418,-5.494 -2.325,0 -8.955,0.24 -13.346,0.558 -1.464,0.08 -3.531,0.24 -6.285,0.397 v 51.997 h 20.749 v -12.183 c 1.292,0.079 2.497,0.079 3.187,0.079 16.272,0.001 26.173,-7.723 26.173,-20.464 z m -27.036,6.053 c -0.432,0 -1.464,-0.079 -2.325,-0.079 v -10.83 h 2.583 c 4.047,0 7.059,2.39 7.059,5.575 0,3.424 -2.668,5.334 -7.317,5.334 z"
   id="path12" />
		<path
   d="m 564.668,433.371 -24.709,52.234 h 19.286 l 3.443,-7.643 h 19.544 l 3.188,7.643 h 22.041 l -24.367,-52.234 z m 2.498,33.761 5.682,-13.138 5.254,13.138 z"
   id="path14" />
		<path
   d="m 632.602,449.455 c 3.357,0 5.684,0.876 8.781,3.184 l 10.764,-14.571 c -6.889,-4.539 -12.83,-6.291 -21.353,-6.291 -8.009,0 -16.358,3.105 -21.784,8.122 -5.165,4.778 -8.264,12.024 -8.264,19.111 0,15.766 11.363,27.153 27.98,28.188 8.438,0.556 16.102,-1.434 23.42,-6.132 l -8.868,-14.811 c -3.444,2.39 -6.284,3.424 -9.989,3.424 -5.854,0 -10.589,-4.539 -10.589,-10.271 0,-5.732 4.218,-9.953 9.902,-9.953 z"
   id="path16" />
		<polygon
   points="693.818,433.371 653.954,433.371 653.954,485.605 695.626,485.605 697.09,471.751 674.016,471.751 674.016,465.222 691.406,465.222 691.406,452.64 674.016,452.64 674.016,447.226 693.818,447.226 "
   id="polygon18" />
		<path
   d="m 321.331,334.149 c -0.402,0.112 -0.736,0.373 -0.942,0.737 -0.205,0.36 -0.255,0.782 -0.144,1.183 0.237,0.86 1.116,1.352 1.93,1.13 0.402,-0.112 0.736,-0.373 0.942,-0.737 0.205,-0.361 0.257,-0.782 0.146,-1.183 -0.199,-0.716 -0.817,-1.186 -1.514,-1.186 -0.14,0 -0.281,0.02 -0.418,0.056 z"
   id="path20" />
		<path
   d="M 345.83,367.229 332.111,296.68 c -1.47,-0.163 -5.078,-1.097 -6.284,-1.262 -1.457,-0.203 -15.161,5.133 -21.107,7.174 l 17.919,64.563 z m -24.124,-55.993 c 0.397,-0.111 0.801,-0.131 1.191,-0.08 l -0.16,-0.093 2.259,-3.905 7.108,-1.899 0.632,2.364 -6.13,1.636 -1.727,2.985 c 0.277,0.325 0.495,0.706 0.612,1.133 0.232,0.835 0.129,1.665 -0.275,2.38 -0.405,0.715 -1.063,1.228 -1.855,1.448 -0.268,0.075 -0.545,0.111 -0.823,0.111 -1.376,0 -2.593,-0.925 -2.961,-2.253 -0.464,-1.677 0.497,-3.373 2.129,-3.827 z m -5.461,15.873 c -0.138,-0.499 -0.143,-0.992 -0.049,-1.463 l -0.179,0.309 -2.015,-1.165 -1.412,-5.292 c -1.001,-0.294 -1.814,-1.079 -2.104,-2.12 -0.23,-0.835 -0.128,-1.664 0.275,-2.379 0.405,-0.715 1.063,-1.23 1.856,-1.449 1.605,-0.447 3.343,0.547 3.784,2.141 0.231,0.835 0.129,1.665 -0.275,2.379 -0.266,0.466 -0.646,0.835 -1.092,1.104 l 1.071,4.007 1.137,0.657 -0.056,0.094 c 0.342,-0.298 0.741,-0.524 1.191,-0.649 1.595,-0.451 3.342,0.547 3.784,2.14 0.343,1.242 -0.099,2.494 -1.014,3.245 l 1.058,3.961 c 1.157,0.19 2.182,1.033 2.506,2.203 0.23,0.835 0.129,1.665 -0.276,2.379 -0.405,0.714 -1.064,1.229 -1.855,1.448 -0.267,0.076 -0.544,0.112 -0.822,0.112 -1.375,0 -2.592,-0.927 -2.962,-2.253 -0.23,-0.834 -0.129,-1.662 0.274,-2.377 0.199,-0.352 0.461,-0.655 0.769,-0.896 l -1.046,-3.915 c -1.202,-0.168 -2.218,-1.03 -2.548,-2.221 z m 1.936,19.285 1.225,-2.115 2.555,1.478 10.258,-2.739 c 0.064,-1.304 0.925,-2.461 2.228,-2.821 1.603,-0.447 3.343,0.545 3.785,2.14 0.463,1.675 -0.496,3.374 -2.129,3.827 -0.27,0.076 -0.546,0.113 -0.823,0.113 -0.857,0 -1.651,-0.36 -2.219,-0.951 v 0 l -11.447,3.056 z"
   id="path22" />
		<path
   d="m 313.865,318.06 c 0.402,-0.112 0.737,-0.373 0.943,-0.737 0.204,-0.361 0.257,-0.782 0.145,-1.183 -0.199,-0.716 -0.815,-1.186 -1.513,-1.186 -0.141,0 -0.281,0.019 -0.418,0.057 -0.403,0.111 -0.736,0.371 -0.942,0.735 -0.205,0.36 -0.256,0.782 -0.145,1.183 0.237,0.859 1.11,1.351 1.93,1.131 z"
   id="path24" />
		<path
   d="m 322.957,315.745 c 0.829,-0.23 1.317,-1.091 1.086,-1.92 -0.198,-0.716 -0.816,-1.186 -1.513,-1.186 -0.141,0 -0.282,0.02 -0.419,0.057 -0.829,0.231 -1.316,1.091 -1.086,1.921 0.239,0.858 1.112,1.349 1.932,1.128 z"
   id="path26" />
		<path
   d="m 319.624,327.792 c 0.829,-0.232 1.318,-1.093 1.088,-1.922 -0.199,-0.716 -0.816,-1.188 -1.513,-1.188 -0.141,0 -0.281,0.02 -0.419,0.059 -0.402,0.111 -0.737,0.372 -0.942,0.736 -0.205,0.361 -0.256,0.783 -0.144,1.184 0.237,0.86 1.116,1.351 1.93,1.131 z"
   id="path28" />
		<path
   d="m 335.698,344.703 c 0.828,-0.229 1.315,-1.092 1.086,-1.921 -0.199,-0.716 -0.816,-1.186 -1.513,-1.186 -0.141,0 -0.282,0.02 -0.419,0.058 -0.829,0.232 -1.317,1.093 -1.086,1.92 0.237,0.86 1.108,1.353 1.932,1.129 z"
   id="path30" />
		<path
   d="m 345.921,314.961 c -0.076,0 -0.153,0.005 -0.229,0.018 -0.413,0.059 -0.777,0.276 -1.026,0.61 -0.249,0.334 -0.352,0.745 -0.291,1.156 0.129,0.886 0.913,1.497 1.774,1.363 0.851,-0.125 1.443,-0.92 1.319,-1.77 -0.118,-0.804 -0.78,-1.377 -1.547,-1.377 z"
   id="path32" />
		<path
   d="m 351.905,335.068 c 0.851,-0.124 1.442,-0.919 1.317,-1.768 -0.116,-0.807 -0.779,-1.381 -1.546,-1.381 -0.075,0 -0.151,0.006 -0.229,0.018 -0.851,0.125 -1.443,0.917 -1.318,1.77 0.13,0.882 0.91,1.496 1.776,1.361 z"
   id="path34" />
		<path
   d="m 376.925,367.097 -7.333,-88.923 -27.034,4.153 -7.014,5.775 14.708,79.054 z m -3.427,-22.103 0.332,2.423 -2.945,0.402 c -0.263,0.724 -0.78,1.32 -1.462,1.676 l 0.194,-0.026 0.51,3.714 c 1.241,0.258 2.249,1.257 2.439,2.55 0.251,1.723 -0.913,3.287 -2.59,3.533 -0.15,0.022 -0.3,0.033 -0.448,0.033 -1.514,0 -2.821,-1.132 -3.04,-2.632 -0.126,-0.854 0.079,-1.664 0.57,-2.324 0.189,-0.254 0.421,-0.463 0.671,-0.644 l -0.534,-3.898 0.176,-0.024 c -1.225,-0.268 -2.208,-1.272 -2.397,-2.553 -0.25,-1.723 0.915,-3.287 2.592,-3.535 1.361,-0.191 2.611,0.542 3.184,1.681 z m -14.425,-57.988 c 0.49,-0.658 1.207,-1.086 2.02,-1.205 1.697,-0.235 3.247,0.954 3.488,2.598 0.124,0.855 -0.08,1.667 -0.571,2.325 -0.207,0.278 -0.461,0.505 -0.738,0.693 l 0.349,2.551 c 0.983,0.403 1.729,1.287 1.89,2.386 0.251,1.721 -0.915,3.286 -2.591,3.531 -0.15,0.021 -0.299,0.033 -0.447,0.033 -1.514,0 -2.821,-1.132 -3.04,-2.63 -0.206,-1.405 0.539,-2.691 1.728,-3.258 l -0.294,-2.152 c -1.21,-0.279 -2.179,-1.277 -2.364,-2.545 -0.127,-0.857 0.078,-1.667 0.57,-2.327 z m -19.572,11.775 4.236,-0.578 0.124,0.902 c -0.06,-1.579 1.042,-2.957 2.607,-3.188 1.696,-0.232 3.247,0.951 3.489,2.597 0.251,1.724 -0.916,3.288 -2.594,3.534 -0.149,0.021 -0.299,0.033 -0.447,0.033 -1.41,0 -2.629,-0.989 -2.967,-2.336 l 0.12,0.88 -4.236,0.578 z m 6.868,20.827 c -0.151,0.021 -0.301,0.032 -0.448,0.032 -1.515,0 -2.82,-1.132 -3.04,-2.631 -0.126,-0.857 0.08,-1.665 0.57,-2.324 0.49,-0.66 1.209,-1.088 2.021,-1.208 1.39,-0.193 2.675,0.582 3.227,1.773 l -0.033,-0.244 15.466,-2.113 c 0.357,-1.073 1.272,-1.906 2.451,-2.079 1.699,-0.24 3.247,0.953 3.487,2.6 0.126,0.854 -0.078,1.663 -0.569,2.323 -0.491,0.659 -1.209,1.087 -2.022,1.207 -0.15,0.02 -0.301,0.031 -0.448,0.031 -1.156,0 -2.186,-0.662 -2.709,-1.641 l -15.326,2.094 -0.056,-0.407 c -0.202,1.314 -1.211,2.387 -2.571,2.587 z m 2.267,14.362 c -0.251,-1.722 0.915,-3.286 2.593,-3.532 1.689,-0.238 3.246,0.953 3.486,2.598 0.2,1.359 -0.491,2.609 -1.617,3.203 l 2.024,14.813 -3.819,5.867 -2.049,-1.335 3.322,-5.103 -1.921,-14.064 c -1.045,-0.375 -1.85,-1.302 -2.019,-2.447 z"
   id="path36" />
		<path
   d="m 367.261,315.445 c 0.414,-0.06 0.777,-0.277 1.026,-0.611 0.249,-0.334 0.352,-0.745 0.292,-1.156 -0.118,-0.807 -0.779,-1.381 -1.546,-1.381 -0.075,0 -0.151,0.006 -0.228,0.018 -0.851,0.125 -1.443,0.92 -1.318,1.77 0.128,0.883 0.917,1.494 1.774,1.36 z"
   id="path38" />
		<path
   d="m 361.77,290.431 c 0.851,-0.125 1.441,-0.917 1.317,-1.77 -0.117,-0.804 -0.779,-1.38 -1.548,-1.38 -0.074,0 -0.151,0.008 -0.228,0.018 -0.413,0.06 -0.775,0.277 -1.024,0.61 -0.25,0.335 -0.353,0.747 -0.294,1.159 0.13,0.885 0.913,1.491 1.777,1.363 z"
   id="path40" />
		<path
   d="m 362.47,295.237 c -0.075,0 -0.151,0.005 -0.227,0.018 -0.852,0.124 -1.443,0.917 -1.317,1.768 0.128,0.885 0.914,1.489 1.775,1.361 0.851,-0.124 1.442,-0.916 1.317,-1.769 -0.118,-0.805 -0.78,-1.378 -1.548,-1.378 z"
   id="path42" />
		<path
   d="m 368.011,345.172 c -0.074,0 -0.151,0.006 -0.228,0.018 -0.851,0.124 -1.443,0.919 -1.319,1.768 0.13,0.885 0.914,1.492 1.776,1.361 0.851,-0.125 1.443,-0.917 1.319,-1.77 -0.118,-0.802 -0.781,-1.377 -1.548,-1.377 z"
   id="path44" />
		<path
   d="m 369.296,354.636 c -0.412,0.059 -0.776,0.276 -1.025,0.611 -0.249,0.335 -0.353,0.746 -0.291,1.156 0.129,0.885 0.91,1.494 1.776,1.363 0.849,-0.125 1.441,-0.919 1.317,-1.769 -0.118,-0.807 -0.78,-1.38 -1.547,-1.38 -0.076,10e-4 -0.152,0.008 -0.23,0.019 z"
   id="path46" />
		<path
   d="m 347.145,300.549 c 0.851,-0.124 1.443,-0.918 1.319,-1.77 -0.119,-0.805 -0.781,-1.379 -1.548,-1.379 -0.075,0 -0.151,0.006 -0.228,0.019 -0.851,0.124 -1.442,0.918 -1.317,1.768 0.128,0.885 0.912,1.491 1.774,1.362 z"
   id="path48" />
		<path
   d="m 396.219,281.544 v 0.756 l 0.015,-0.756 c 0.417,-0.005 0.808,-0.171 1.099,-0.469 0.292,-0.298 0.451,-0.69 0.447,-1.106 -0.009,-0.897 -0.71,-1.59 -1.561,-1.59 -0.876,0.008 -1.568,0.717 -1.56,1.575 0.008,0.895 0.708,1.59 1.56,1.59 z"
   id="path50" />
		<path
   d="m 396.256,288.128 c -0.877,0.007 -1.568,0.713 -1.562,1.573 0.009,0.897 0.709,1.591 1.562,1.591 v 0.756 l 0.014,-0.756 c 0.417,-0.005 0.806,-0.17 1.1,-0.47 0.292,-0.297 0.45,-0.689 0.445,-1.107 -0.008,-0.897 -0.708,-1.587 -1.559,-1.587 z"
   id="path52" />
		<path
   d="m 402.545,270.764 v 0.759 l 0.016,-0.759 c 0.418,-0.004 0.808,-0.17 1.099,-0.467 0.292,-0.297 0.451,-0.69 0.447,-1.107 -0.009,-0.896 -0.709,-1.591 -1.561,-1.591 -0.875,0.01 -1.567,0.717 -1.559,1.577 0.007,0.897 0.707,1.588 1.558,1.588 z"
   id="path54" />
		<path
   d="m 407.274,275.465 c -0.875,0.011 -1.567,0.718 -1.559,1.576 0.008,0.898 0.708,1.589 1.559,1.589 v 0.759 l 0.016,-0.759 c 0.417,-0.005 0.808,-0.171 1.099,-0.467 0.291,-0.298 0.451,-0.691 0.447,-1.106 -0.01,-0.898 -0.709,-1.592 -1.562,-1.592 z"
   id="path56" />
		<path
   d="m 385.111,288.053 c -0.876,0.008 -1.569,0.716 -1.561,1.574 0.008,0.896 0.707,1.59 1.559,1.59 v 0.759 l 0.016,-0.759 c 0.417,-0.004 0.807,-0.17 1.098,-0.467 0.292,-0.297 0.451,-0.691 0.448,-1.107 -0.009,-0.897 -0.709,-1.59 -1.56,-1.59 z"
   id="path58" />
		<path
   d="m 393.165,270.655 v 0.757 l 0.014,-0.757 c 0.86,-0.009 1.554,-0.716 1.546,-1.576 -0.009,-0.897 -0.708,-1.589 -1.56,-1.589 -0.432,0.006 -0.823,0.171 -1.114,0.469 -0.292,0.297 -0.45,0.689 -0.445,1.105 0.007,0.898 0.707,1.591 1.559,1.591 z"
   id="path60" />
		<path
   d="m 386.824,343.332 c 0.007,0.897 0.707,1.591 1.559,1.591 v 0.759 l 0.015,-0.759 c 0.86,-0.009 1.554,-0.715 1.546,-1.575 -0.007,-0.896 -0.707,-1.588 -1.559,-1.588 -0.432,0.004 -0.822,0.169 -1.114,0.467 -0.292,0.296 -0.452,0.69 -0.447,1.105 z"
   id="path62" />
		<path
   d="m 412.433,366.689 12.447,-95.707 -8.336,-9.97 -42.015,-2.373 7.588,108.138 z m -2.875,-8.372 c -0.575,0.587 -1.344,0.913 -2.165,0.921 h -0.03 c -1.679,0 -3.057,-1.365 -3.074,-3.044 -0.016,-1.74 1.352,-3.133 3.046,-3.15 1.708,0 3.088,1.368 3.103,3.046 0.008,0.865 -0.304,1.64 -0.88,2.227 z m 6.175,-26.351 h -8.772 c -0.149,0.359 -0.362,0.688 -0.64,0.971 -0.574,0.586 -1.344,0.912 -2.165,0.92 h -0.032 c -1.678,0 -3.055,-1.366 -3.072,-3.044 -0.016,-1.74 1.352,-3.132 3.046,-3.148 1.28,0 2.375,0.766 2.849,1.855 h 8.786 z m 3.123,-32.314 -5.625,-5.714 h -2.979 c -0.148,0.396 -0.373,0.758 -0.675,1.066 -0.576,0.585 -1.344,0.912 -2.165,0.92 h -0.03 c -1.679,0 -3.058,-1.366 -3.074,-3.044 -0.018,-1.739 1.348,-3.132 3.045,-3.151 1.238,0 2.297,0.725 2.797,1.762 h 4.103 l 6.344,6.444 z m 3.638,-17.488 -1.716,1.743 -5.873,-5.783 h -4.75 c -0.149,0.41 -0.374,0.783 -0.685,1.102 -0.575,0.585 -1.345,0.911 -2.166,0.919 h -0.03 c -1.679,0 -3.057,-1.364 -3.073,-3.045 -0.018,-1.737 1.347,-3.131 3.044,-3.148 1.225,0 2.272,0.708 2.778,1.727 h 5.884 z m -19.978,-16.079 c 0.416,0 0.809,0.083 1.17,0.23 l -0.129,-0.129 3.191,-3.193 h 9.48 v 2.448 h -8.469 l -2.434,2.431 c 0.181,0.386 0.29,0.809 0.294,1.26 0.008,0.866 -0.305,1.64 -0.881,2.228 -0.574,0.586 -1.344,0.912 -2.164,0.92 h -0.03 c -1.678,0 -3.057,-1.365 -3.074,-3.044 -0.016,-1.739 1.349,-3.133 3.046,-3.151 z m -11.546,0.813 c 0.576,-0.588 1.345,-0.915 2.166,-0.921 1.708,0 3.087,1.364 3.105,3.044 0.014,1.442 -0.932,2.636 -2.22,3.012 v 4.148 l 0.93,0.929 -0.081,0.08 c 0.401,-0.199 0.846,-0.322 1.32,-0.327 1.706,0 3.087,1.366 3.104,3.046 0.008,0.866 -0.304,1.641 -0.88,2.227 -0.272,0.278 -0.59,0.492 -0.934,0.648 v 4.095 c 1.081,0.476 1.838,1.539 1.85,2.778 0.009,0.865 -0.303,1.64 -0.879,2.228 -0.575,0.586 -1.345,0.913 -2.165,0.922 h -0.029 c -1.678,0 -3.058,-1.365 -3.076,-3.047 -0.012,-1.305 0.753,-2.413 1.853,-2.894 v -4.048 c -1.098,-0.464 -1.876,-1.548 -1.888,-2.807 -0.005,-0.522 0.126,-1.007 0.342,-1.438 l -0.265,0.267 -1.648,-1.645 v -5.483 c -0.875,-0.537 -1.471,-1.491 -1.482,-2.588 -0.01,-0.864 0.302,-1.64 0.877,-2.226 z m 1.588,70.554 h 18.479 v 2.447 H 393.57 l -2.325,2.324 c 0.128,0.332 0.21,0.689 0.213,1.065 0.016,1.738 -1.35,3.131 -3.046,3.148 h -0.03 c -1.679,0 -3.057,-1.367 -3.074,-3.046 -0.007,-0.864 0.305,-1.64 0.881,-2.227 0.575,-0.587 1.344,-0.914 2.165,-0.921 0.418,0 0.816,0.085 1.181,0.232 z M 379.93,270.333 h -3.048 v -2.448 h 4.062 l 5.573,5.574 v 13.443 c 0.979,0.512 1.655,1.516 1.668,2.683 0.007,0.864 -0.305,1.64 -0.881,2.225 -0.575,0.588 -1.344,0.913 -2.166,0.921 h -0.029 c -1.679,0 -3.059,-1.367 -3.074,-3.046 -0.012,-1.373 0.844,-2.52 2.037,-2.952 V 274.47 Z"
   id="path64" />
		<path
   d="m 407.382,291.244 c -0.875,0.01 -1.568,0.718 -1.559,1.577 0.007,0.897 0.708,1.589 1.559,1.589 v 0.757 l 0.016,-0.757 c 0.417,-0.005 0.807,-0.17 1.099,-0.469 0.291,-0.296 0.451,-0.69 0.447,-1.106 -0.01,-0.895 -0.709,-1.591 -1.562,-1.591 z"
   id="path66" />
		<path
   d="m 407.365,354.559 c -0.874,0.01 -1.568,0.716 -1.56,1.575 0.007,0.898 0.707,1.589 1.559,1.589 v 0.759 l 0.015,-0.759 c 0.418,-0.004 0.808,-0.169 1.099,-0.467 0.292,-0.297 0.451,-0.691 0.447,-1.106 -0.009,-0.897 -0.708,-1.591 -1.56,-1.591 z"
   id="path68" />
		<path
   d="m 404.131,329.179 c -0.879,0.008 -1.571,0.715 -1.564,1.573 0.008,0.897 0.706,1.59 1.557,1.59 v 0.757 l 0.018,-0.757 c 0.417,-0.004 0.808,-0.17 1.099,-0.469 0.292,-0.296 0.45,-0.689 0.447,-1.104 -0.008,-0.898 -0.707,-1.59 -1.557,-1.59 z"
   id="path70" />
		<polygon
   points="331.53,389.225 331.465,420.956 348.126,420.991 348.191,389.258 359.253,389.282 359.28,375.662 320.496,375.583 320.469,389.203 "
   id="polygon72" />
		<path
   d="m 369.156,378.793 c -6.577,4.479 -10.048,11.455 -10.066,20.097 -0.012,5.876 2.465,12.173 6.465,16.4 4.346,4.71 10.563,7.143 18.167,7.158 6.084,0.013 12.104,-1.982 16.327,-5.36 5.816,-4.62 8.733,-11.112 8.75,-19.615 0.012,-5.808 -2.67,-12.173 -6.948,-16.262 -4.623,-4.571 -10.633,-6.863 -17.684,-6.879 -5.322,-0.013 -10.926,1.636 -15.011,4.461 z m 21.737,20.024 c -0.013,6.013 -2.509,9.329 -6.794,9.044 -4.218,-0.286 -7.25,-4.579 -7.238,-10.178 0.011,-5.738 2.369,-8.983 6.586,-8.975 4.354,0.01 7.458,4.232 7.446,10.109 z"
   id="path74" />
		<path
   d="m 436.049,389.784 c 2.697,0.005 4.563,0.77 7.047,2.779 l 8.668,-12.633 c -5.523,-3.953 -10.289,-5.482 -17.135,-5.498 -6.429,-0.011 -13.14,2.669 -17.504,7.015 -4.156,4.143 -6.658,10.427 -6.671,16.58 -0.029,13.688 9.078,23.594 22.418,24.519 6.774,0.498 12.933,-1.218 18.816,-5.284 l -7.097,-12.873 c -2.77,2.068 -5.051,2.962 -8.023,2.957 -4.702,-0.011 -8.496,-3.96 -8.486,-8.938 0.011,-4.976 3.406,-8.633 7.967,-8.624 z"
   id="path76" />
		<polygon
   points="485.324,397.281 500.989,377.334 482.881,375.016 469.779,392.205 469.813,375.888 453.15,375.853 453.059,421.205 469.721,421.239 469.74,411.424 473,407.004 481.266,421.263 501.244,421.303 "
   id="polygon78" />
		<polygon
   points="502.139,421.306 518.799,421.34 518.834,404.816 530.654,404.84 530.621,421.363 547.281,421.398 547.375,376.045 530.715,376.012 530.68,392.119 518.859,392.096 518.894,375.987 502.23,375.954 "
   id="polygon80" />
		<path
   d="m 574.821,374.72 c -5.323,-0.012 -10.927,1.637 -15.012,4.462 -6.577,4.481 -10.048,11.456 -10.063,20.098 -0.013,5.875 2.463,12.173 6.463,16.397 4.347,4.71 10.563,7.144 18.166,7.158 6.086,0.014 12.104,-1.979 16.33,-5.358 5.814,-4.62 8.732,-11.112 8.75,-19.615 0.012,-5.809 -2.674,-12.173 -6.949,-16.263 -4.625,-4.572 -10.633,-6.866 -17.685,-6.879 z m -0.07,33.529 c -4.214,-0.285 -7.247,-4.577 -7.237,-10.178 0.012,-5.736 2.369,-8.982 6.588,-8.974 4.355,0.009 7.457,4.232 7.445,10.109 -0.013,6.014 -2.51,9.328 -6.796,9.043 z"
   id="path82" />
		<polygon
   points="601.89,421.508 634.728,421.574 636.277,407.751 618.578,407.716 618.644,376.19 601.983,376.156 "
   id="polygon84" />
		<polygon
   points="666.713,398.066 657.977,376.271 644.426,376.244 636.384,421.58 649.519,421.605 652.668,402.531 660.166,421.627 670.12,421.647 677.693,402.581 680.768,421.67 696.807,421.702 688.948,376.334 675.607,376.308 "
   id="polygon86" />
		<path
   d="m 298.435,410.381 c -4.466,0.14 -8.463,-1.062 -13.595,-3.965 l 1.042,14.135 c 6.936,2.377 13.078,3 19.208,1.94 11.376,-1.97 17.822,-9.329 16.243,-18.457 -0.531,-3.065 -2.814,-6.53 -5.495,-8.239 -2.054,-1.331 -5.54,-2.83 -9.345,-4.138 -1.721,-0.614 -2.62,-0.948 -2.928,-1.106 -0.925,-0.473 -1.439,-1.016 -1.477,-1.641 -0.132,-1.169 0.84,-2.038 2.407,-2.309 2.521,-0.437 5.922,0.167 10.262,1.731 l 0.63,-12.177 c -7.082,-2.003 -11.346,-2.316 -17.477,-1.255 -3.542,0.611 -7.701,2.523 -10.336,4.732 -3.868,3.195 -5.489,7.615 -4.664,12.386 0.907,5.243 3.987,8.851 9.147,10.693 l 1.96,0.783 4.032,1.409 c 0.456,0.2 1.06,0.446 1.676,0.763 1.299,0.616 1.814,1.156 1.955,1.976 0.271,1.568 -1.006,2.703 -3.245,2.739 z"
   id="path88" />
		<path
   d="m 425.579,355.439 c 0.86,0.135 1.659,-0.431 1.806,-1.269 0.156,-0.891 -0.414,-1.701 -1.261,-1.851 -0.091,-0.016 -0.181,-0.022 -0.272,-0.022 -0.757,0 -1.401,0.542 -1.534,1.29 -0.08,0.456 0.015,0.869 0.252,1.209 0.24,0.342 0.598,0.569 1.009,0.643 z"
   id="path90" />
		<path
   d="m 439.554,332.283 c -0.091,-0.016 -0.182,-0.024 -0.272,-0.024 -0.756,0 -1.402,0.542 -1.533,1.292 -0.078,0.454 0.013,0.867 0.253,1.209 0.24,0.341 0.599,0.568 1.007,0.641 0.863,0.137 1.659,-0.43 1.807,-1.268 0.078,-0.455 -0.013,-0.87 -0.254,-1.209 -0.24,-0.343 -0.597,-0.569 -1.008,-0.641 z"
   id="path92" />
		<path
   d="m 436.545,296.178 c 0.859,0.139 1.658,-0.431 1.807,-1.268 0.08,-0.454 -0.013,-0.868 -0.25,-1.208 -0.24,-0.342 -0.6,-0.569 -1.011,-0.641 -0.093,-0.017 -0.183,-0.023 -0.272,-0.023 -0.758,0 -1.402,0.543 -1.533,1.291 -0.157,0.891 0.413,1.7 1.259,1.849 z"
   id="path94" />
		<path
   d="m 429.802,333.399 c 0.863,0.135 1.657,-0.431 1.807,-1.268 0.155,-0.891 -0.415,-1.701 -1.26,-1.85 -0.091,-0.015 -0.182,-0.023 -0.272,-0.023 -0.758,0 -1.402,0.543 -1.533,1.292 -0.159,0.89 0.411,1.702 1.258,1.849 z"
   id="path96" />
		<path
   d="m 441.609,366.822 21.188,-77.037 -29.618,-4.983 -5.244,4.055 -9.923,77.783 z m -7.822,-72.712 c 0.295,-1.697 1.854,-2.849 3.565,-2.54 0.81,0.14 1.515,0.588 1.987,1.262 0.262,0.373 0.425,0.793 0.502,1.228 l 11.539,2.133 -0.445,2.406 -11.563,-2.138 0.036,-0.195 c -0.55,0.885 -1.511,1.449 -2.591,1.449 -0.177,0 -0.354,-0.017 -0.533,-0.047 -1.669,-0.29 -2.79,-1.888 -2.497,-3.558 z m -5.697,10.741 13.441,2.484 3.368,4.896 -3.569,19.302 c 0.175,0.156 0.335,0.326 0.472,0.522 0.473,0.671 0.654,1.486 0.512,2.296 -0.264,1.519 -1.536,2.59 -3.032,2.59 -0.177,0 -0.353,-0.017 -0.532,-0.048 -0.809,-0.14 -1.516,-0.588 -1.986,-1.262 -0.473,-0.672 -0.654,-1.488 -0.513,-2.297 0.247,-1.413 1.381,-2.429 2.733,-2.561 l 3.326,-17.991 -2.219,-3.226 -12.443,-2.3 z m -3.035,46.045 0.986,-5.34 c -0.871,-0.676 -1.361,-1.79 -1.156,-2.951 0.227,-1.288 1.185,-2.261 2.379,-2.52 l 1.043,-5.649 0.121,0.023 c -1.02,-0.646 -1.607,-1.863 -1.385,-3.125 0.296,-1.697 1.865,-2.848 3.566,-2.541 1.67,0.29 2.791,1.886 2.498,3.558 -0.229,1.308 -1.207,2.279 -2.43,2.524 l 0.035,0.006 -1.051,5.686 c 0.955,0.662 1.5,1.837 1.287,3.055 -0.236,1.346 -1.262,2.334 -2.533,2.545 l -0.939,5.084 c 1.031,0.644 1.63,1.869 1.408,3.138 -0.265,1.518 -1.537,2.589 -3.033,2.589 -0.176,0 -0.354,-0.017 -0.533,-0.048 -0.81,-0.14 -1.516,-0.588 -1.988,-1.262 -0.472,-0.673 -0.651,-1.489 -0.51,-2.298 0.214,-1.236 1.11,-2.169 2.235,-2.474 z"
   id="path98" />
		<path
   d="m 427.644,344.671 c 0.86,0.142 1.657,-0.431 1.806,-1.268 0.156,-0.891 -0.413,-1.701 -1.259,-1.849 -0.092,-0.014 -0.183,-0.024 -0.272,-0.024 -0.758,0 -1.401,0.544 -1.533,1.292 -0.159,0.89 0.411,1.701 1.258,1.849 z"
   id="path100" />
		<path
   d="m 469.543,323.618 c 0.59,-0.431 1.285,-0.706 2.049,-0.734 2.195,-0.089 4.053,1.78 4.149,4.176 0.095,2.395 -1.606,4.408 -3.802,4.496 -2.193,0.088 -4.052,-1.782 -4.15,-4.177 -0.023,-0.582 0.064,-1.142 0.234,-1.656 l -5.56,-5.656 c -2.711,7.829 -4.576,15.364 -5.85,21.995 l 6.754,6.22 c 0.565,-0.458 1.246,-0.767 2.006,-0.835 2.188,-0.196 4.136,1.578 4.352,3.967 0.213,2.387 -1.387,4.482 -3.574,4.679 -2.19,0.196 -4.135,-1.581 -4.35,-3.968 -0.053,-0.581 0.006,-1.143 0.151,-1.668 l -5.884,-5.421 c -2.147,12.372 -2.227,20.939 -2.227,21.146 v 1.008 l 1.008,0.008 c 10.919,0.08 21.65,0.13 32.029,0.148 l 3.207,-7.366 c -0.619,-0.387 -1.135,-0.928 -1.447,-1.625 -0.902,-2.004 0.138,-4.426 2.323,-5.411 2.186,-0.983 4.689,-0.157 5.591,1.846 0.902,2.002 -0.139,4.426 -2.322,5.408 -0.532,0.24 -1.083,0.369 -1.624,0.403 l -2.94,6.749 c 2.545,0.002 5.092,0.008 7.59,0.008 0.006,0 0.008,0 0.012,0 6.699,0 13.09,-0.016 19.256,-0.039 l 3.697,-8.493 c -0.619,-0.386 -1.135,-0.928 -1.447,-1.623 -0.904,-2.002 0.135,-4.425 2.322,-5.409 2.184,-0.984 4.688,-0.16 5.59,1.843 0.902,2.005 -0.135,4.426 -2.322,5.411 -0.533,0.24 -1.084,0.368 -1.625,0.403 l -3.423,7.858 c 9.369,-0.043 18.148,-0.109 26.455,-0.189 l 3.763,-8.645 c -0.619,-0.384 -1.133,-0.928 -1.447,-1.623 -0.904,-2.003 0.138,-4.426 2.322,-5.41 2.186,-0.985 4.688,-0.159 5.592,1.844 0.902,2.003 -0.137,4.426 -2.324,5.41 -0.531,0.24 -1.081,0.368 -1.623,0.401 l -3.48,7.992 c 8.383,-0.089 16.291,-0.188 23.832,-0.298 L 604.41,241.106 c -1.705,-0.46 -3.443,-0.877 -5.211,-1.256 l -26.504,25.07 c 0,0 2.643,-16.595 4.447,-22.915 0.307,-1.068 1.316,-2.723 2.764,-4.719 -4.289,-0.261 -8.732,-0.356 -13.359,-0.278 -1.603,0.026 -3.85,0.141 -6.633,0.47 l -3.094,7.355 c 0.624,0.376 1.145,0.911 1.468,1.605 0.928,1.992 -0.081,4.427 -2.255,5.439 -2.172,1.012 -4.686,0.217 -5.613,-1.774 -0.928,-1.993 0.082,-4.428 2.254,-5.44 0.529,-0.246 1.078,-0.38 1.62,-0.423 l 2.675,-6.353 c -5.767,0.898 -13.238,2.67 -21.803,6.14 l -1.162,8.6 c 0.702,0.201 1.343,0.583 1.836,1.168 1.414,1.681 1.076,4.296 -0.76,5.839 -1.832,1.545 -4.466,1.432 -5.881,-0.248 -1.415,-1.683 -1.074,-4.296 0.756,-5.838 0.449,-0.375 0.944,-0.65 1.455,-0.832 l 1.019,-7.537 c -6.834,2.98 -14.285,7.049 -22.051,12.56 l 1.163,5.757 c 0.728,-0.039 1.46,0.112 2.116,0.503 1.887,1.126 2.422,3.707 1.193,5.765 -1.229,2.061 -3.753,2.816 -5.639,1.69 -1.889,-1.125 -2.424,-3.706 -1.195,-5.766 0.299,-0.501 0.677,-0.923 1.102,-1.262 l -1.016,-5.041 c -5.301,3.929 -10.733,8.551 -16.205,13.968 l 2.655,6.629 c 0.708,-0.17 1.457,-0.155 2.172,0.112 2.06,0.764 3.05,3.207 2.217,5.453 -0.837,2.245 -3.183,3.447 -5.241,2.681 -2.061,-0.765 -3.051,-3.207 -2.218,-5.455 0.204,-0.547 0.501,-1.028 0.858,-1.439 l -2.401,-5.998 c -1.805,1.847 -3.611,3.758 -5.417,5.785 -3.442,3.866 -6.477,7.952 -9.191,12.15 l 4.663,6.63 c 0.652,-0.33 1.383,-0.487 2.141,-0.394 2.18,0.272 3.707,2.421 3.412,4.799 -0.296,2.377 -2.304,4.086 -4.482,3.815 -2.181,-0.271 -3.709,-2.418 -3.414,-4.798 0.072,-0.579 0.25,-1.116 0.502,-1.597 l -4.297,-6.11 c -4.357,7.138 -7.768,14.548 -10.432,21.779 z"
   id="path102" />
		<path
   d="m 636.254,265.692 c -0.902,7.27 -6.33,9.776 -6.33,9.776 L 619.498,246.56 c -1.96,-0.911 -3.967,-1.756 -6.023,-2.533 l -31.988,122.63 c 4.504,-0.07 8.9,-0.14 13.191,-0.208 22.867,-0.365 44.467,-0.711 69.303,-0.711 7.359,0 15.018,0.031 23.123,0.101 l 1.067,0.009 -0.048,-1.066 c -1.691,-38.081 -11.392,-63.835 -33.423,-88.831 -5.604,-7.481 -11.684,-13.803 -18.358,-19.045 0.179,3.159 0.213,6.345 -0.088,8.786 z m -8.078,39.631 c 1.576,0 2.869,1.163 3.006,2.704 0.152,1.667 -1.084,3.149 -2.752,3.298 -1.676,0.155 -3.15,-1.113 -3.299,-2.753 -0.07,-0.795 0.176,-1.567 0.695,-2.176 0.521,-0.611 1.256,-0.986 2.064,-1.06 0.098,-0.008 0.192,-0.013 0.286,-0.013 z m 14.402,13.564 c 0.152,1.67 -1.056,3.146 -2.689,3.292 -1.682,0.164 -3.15,-1.115 -3.299,-2.753 -0.148,-1.669 1.086,-3.148 2.756,-3.299 0.09,-0.009 0.179,-0.011 0.268,-0.011 1.549,0 2.824,1.191 2.964,2.771 z m -6.07,-13.131 c 0.521,-0.61 1.256,-0.988 2.064,-1.061 0.095,-0.009 0.189,-0.014 0.28,-0.014 1.544,0 2.812,1.166 2.948,2.71 0.074,0.813 -0.166,1.601 -0.673,2.223 -0.507,0.618 -1.224,0.998 -2.017,1.069 -1.67,0.169 -3.152,-1.113 -3.299,-2.753 -0.071,-0.794 0.177,-1.567 0.697,-2.174 z m 17.373,11.607 c 0.072,0.802 -0.178,1.589 -0.699,2.215 -0.523,0.626 -1.252,1.012 -2.054,1.083 -1.694,0.16 -3.087,-1.089 -3.235,-2.759 -0.072,-0.811 0.168,-1.6 0.674,-2.222 0.506,-0.62 1.223,-0.998 2.018,-1.069 0.091,-0.009 0.182,-0.013 0.271,-0.013 1.558,10e-4 2.886,1.217 3.025,2.765 z m -1.686,-8.752 c -0.522,0.628 -1.252,1.011 -2.053,1.082 -1.69,0.152 -3.086,-1.09 -3.235,-2.759 -0.15,-1.662 1.036,-3.08 2.697,-3.23 0.094,-0.009 0.189,-0.013 0.282,-0.013 1.578,0 2.871,1.161 3.008,2.704 0.074,0.805 -0.173,1.591 -0.699,2.216 z m 6.207,8.857 c -0.073,-0.813 0.166,-1.601 0.676,-2.224 0.505,-0.618 1.22,-0.998 2.015,-1.069 0.091,-0.009 0.179,-0.012 0.268,-0.012 1.559,0 2.891,1.214 3.029,2.765 0.149,1.67 -1.085,3.149 -2.755,3.299 -1.658,0.166 -3.082,-1.089 -3.233,-2.759 z"
   id="path104" />
		<path
   d="m 581.883,242.58 c -3.144,7.025 -5.254,13.744 -5.254,13.744 l 36.399,-33.826 -3.691,-11.648 c 0,0 -24.312,24.704 -27.454,31.73 z"
   id="path106" />
		<path
   d="m 630.84,269.883 c 0,0 2.797,-7.883 1.693,-17.719 -1.099,-9.836 -3.385,-18.065 -4.473,-23.503 -0.185,-0.924 -0.777,-3.018 -1.624,-5.822 -1.231,-4.081 -3.005,-9.696 -4.899,-15.585 -1.043,-3.246 -2.117,-6.564 -3.156,-9.754 -3.39,-10.42 -6.365,-19.39 -6.365,-19.39 0,0 -6.383,-12.345 -13.941,-9.703 -3.777,1.321 -5.927,4.686 -6.871,8.265 -0.944,3.578 -0.68,7.378 0.385,9.561 2.124,4.368 3.863,7.291 7.846,8.89 3.984,1.596 6.732,0.59 7.971,3.202 l 3.053,9.325 z M 608.365,185.48 c -0.604,3.092 -2.868,5.754 -6.547,5.572 -3.68,-0.182 -5.533,-6.387 -5.533,-6.387 -1.043,-2.443 -1.1,-4.578 -0.715,-6.319 0.495,-2.239 1.725,-3.824 2.563,-4.574 1.491,-1.338 4.789,-1.553 7.796,2.002 2.527,2.992 3.04,6.615 2.436,9.706 z"
   id="path108" />
		<path
   d="m 632.262,204.511 c 1.354,-1.179 1.895,-0.277 6.354,0.582 4.461,0.86 7.744,-0.396 12.277,-3.532 4.531,-3.134 9.211,-12.051 4.023,-18.257 -5.186,-6.208 -15.592,-0.282 -15.592,-0.282 l -18.23,17 3.519,10.833 c 0,0 6.295,-5.163 7.649,-6.344 z m 3.666,-11.076 c 0.582,-1.987 2.248,-3.932 5.065,-5.786 5.637,-3.711 9.285,-2.678 10.644,-1.277 1.359,1.402 0.589,7.41 -3.409,11.446 -3.999,4.035 -9.298,3.826 -10.856,1.707 -1.522,-2.065 -2.026,-4.104 -1.444,-6.09 z"
   id="path110" />
		
			<rect
   x="609.47803"
   y="229.341"
   transform="matrix(-0.9686,-0.2487,0.2487,-0.9686,1144.4364,614.6645)"
   width="3.145"
   height="11.381"
   id="rect112" />
		
			<rect
   x="604.19397"
   y="248.66901"
   transform="matrix(-0.9687,-0.2483,0.2483,-0.9687,1129.4017,651.1688)"
   width="3.1459999"
   height="11.38"
   id="rect114" />
		
			<rect
   x="599.10602"
   y="266.771"
   transform="matrix(-0.9684,-0.2493,0.2493,-0.9684,1114.4661,686.0703)"
   width="3.145"
   height="11.381"
   id="rect116" />
		
			<rect
   x="594.44897"
   y="286.479"
   transform="matrix(-0.9685,-0.249,0.249,-0.9685,1100.5416,723.5234)"
   width="3.1459999"
   height="11.381"
   id="rect118" />
		
			<rect
   x="589.461"
   y="305.21899"
   transform="matrix(-0.9686,-0.2488,0.2488,-0.9686,1086.1227,759.095)"
   width="3.1440001"
   height="11.38"
   id="rect120" />
		
			<rect
   x="584.49402"
   y="324.508"
   transform="matrix(-0.9686,-0.2488,0.2488,-0.9686,1071.5433,795.832)"
   width="3.1440001"
   height="11.38"
   id="rect122" />
		
			<rect
   x="579.52899"
   y="343.539"
   transform="matrix(-0.9686,-0.2486,0.2486,-0.9686,1057.1541,831.9471)"
   width="3.1470001"
   height="11.381"
   id="rect124" />
		<polygon
   points="576.634,361.209 574.859,368.117 573.8,372.231 576.848,373.015 578.113,368.093 579.68,361.992 "
   id="polygon126" />
		<path
   d="m 155.842,321.867 -0.315,-0.033 v 0.837 c 0,5.663 0.124,14.239 0.255,23.32 0.145,10.108 0.296,20.559 0.287,27.831 0.187,5.448 0.538,10.818 1.643,14.403 0.177,0.645 1.114,4.012 1.572,4.554 4.016,2.897 3.658,5.215 4.01,9.293 0.084,0.934 -0.116,4.158 -0.779,5.723 -0.587,3.143 -1.667,3.516 -1.655,8.325 -0.015,3.071 2.619,5.399 4.797,5.607 2.333,0.018 5.448,-1.5 5.396,-5.988 -0.067,-3.832 -1.716,-6.557 -2.655,-8.865 -0.17,-1.266 -0.981,-2.799 -1.088,-5.142 0.224,-2.385 1.864,-7.33 3.936,-8.501 1.272,-0.67 4.354,-2.563 5.997,-3.802 0.27,-0.105 0.539,-0.216 0.81,-0.317 l 0.157,-0.08 c 0.578,-0.384 2.089,-0.415 3.303,-0.441 1.973,-0.041 3.674,-0.076 4.149,-1.259 0.261,-0.655 2.038,-1.364 5.282,-2.113 1.816,-0.421 4.564,-3.101 4.9,-4.783 0.245,-1.22 1.262,-5.863 1.454,-6.738 0.907,-1.321 3.327,-4.521 4.904,-5.311 1.597,-0.8 2.368,-0.779 3.728,-0.749 0.325,0.009 0.677,0.018 1.074,0.018 1.506,0 2.255,-0.544 3.124,-1.171 0.606,-0.436 1.291,-0.935 2.462,-1.467 2.941,-1.336 2.776,-4.898 2.656,-7.498 -0.024,-0.508 -0.047,-0.996 -0.047,-1.44 0,-2.102 1.016,-3.585 1.257,-3.909 l 5.272,-3.704 -1.16,-12.581 -4.967,-81.408 3.847,-0.379 -0.363,-4.538 -0.768,0.075 c -0.018,0 -0.073,0.006 -0.168,0.006 -0.764,0 -4.888,-0.296 -11.065,-6.146 -4.142,-3.925 -4.313,-5.638 -4.193,-6.19 0.087,-0.401 0.41,-0.523 0.43,-0.533 l -0.184,-1.482 -4.281,-0.164 -2.193,-40.242 5.436,-0.187 0.304,-3.42 -0.602,-0.172 c -0.08,-0.023 -8.039,-2.307 -14.6,-5.493 -4.641,-2.253 -6.083,-4.366 -6.51,-5.263 0.798,-0.585 1.966,-2.009 1.966,-5.32 0,-3.552 -2.349,-5.566 -3.902,-6.308 l -0.618,-4.361 c 0.786,-0.45 2.012,-1.552 2.012,-4.053 0,-2.221 -1.155,-3.26 -2.445,-3.554 L 177.858,151 c 1.457,-0.21 5.063,-1.009 10.154,-4.006 5.077,-2.983 5.996,-6.073 6.113,-7.563 h 3.632 v -7.314 l -3.103,2.977 -2.39,-2.486 -2.715,2.856 -3.057,-2.997 v 6.965 h 2.51 c -0.902,0.969 -2.358,2.476 -4.405,4.421 -2.747,2.608 -6.028,2.896 -7.325,2.899 l -0.112,-2.161 h 2.431 l -0.078,-6.608 -2.895,2.834 -2.149,-2.659 -1.608,2.699 -3.542,-2.451 -0.277,6.714 3.764,0.195 0.172,1.314 c -2.126,-0.244 -7.368,-1.013 -10.37,-2.87 -2.372,-1.469 -3.29,-3.105 -3.642,-4.078 l 3.089,0.18 -0.635,-6.416 -2.796,3.087 -1.542,-2.102 -2.202,2.252 -2.949,-2.629 0.159,5.569 2.166,0.65 c 0.675,0.948 3.417,4.661 6.674,7.234 3.193,2.523 9.856,3.189 12.029,3.343 l 0.468,5.68 c -0.943,0.403 -2.668,1.416 -2.839,3.48 -0.188,2.255 1.919,3.324 2.933,3.704 l 0.478,5.14 c -1.053,0.693 -3.604,2.71 -3.604,5.988 0,2.764 1.138,4.271 1.886,4.965 -0.622,0.934 -2.268,3.15 -6.02,6.901 -3.149,3.15 -6.275,3.813 -8.343,3.813 -1.022,0 -1.658,-0.17 -1.661,-0.173 l -0.835,-0.234 -0.621,4.421 h 8.579 l 2.194,40.979 -9.146,0.378 0.003,0.729 c 0,0.063 -0.006,6.349 -2.18,10.332 -1.409,2.583 -2.156,3.256 -2.326,3.409 l -4.363,0.871 -2.746,4.889 h 7.488 z m 24.466,-63.132 c 0.191,0.891 0.571,8.85 0.802,14.477 l -4.344,-0.21 -0.445,-14.173 c 0.282,-0.565 1.029,-1.719 1.886,-1.769 l 0.164,-0.004 c 1.425,0.001 1.83,1.174 1.937,1.679 z m 3.207,-0.211 c 0.178,-0.38 0.919,-1.652 2.884,-1.652 0.757,0 1.307,0.171 1.633,0.506 0.364,0.376 0.356,0.861 0.356,0.956 l 0.808,14.903 -4.624,-0.072 -0.609,-0.093 z"
   id="path128" />
		<path
   d="m 233.58,381.665 c 2.246,-1.585 5.323,-3.758 7.173,-5.533 2.871,-2.758 5.842,-5.612 4.725,-8.472 -1.03,-2.638 -5.548,-6.258 -7.586,-6.864 l -0.348,-0.049 c -2.284,0 -9.372,8.585 -12.219,12.179 -0.087,0.076 -8.782,7.656 -10.418,9.018 -1.621,1.349 -12.239,11.572 -12.987,12.594 -0.564,0.771 -2.888,6.837 -2.888,7.304 v 0.495 l 0.453,0.198 c 0.69,0.302 4.064,3.147 6.241,5.072 l 0.499,0.442 16.026,-14.054 c 0.493,-0.115 1.987,-0.439 3.436,-0.439 0.948,0 1.697,0.142 2.168,0.41 1.409,0.804 11.357,10.422 17.757,16.742 l 7.441,6.006 2.878,2.962 0.516,-0.312 c 0.801,-0.483 7.863,-4.768 8.983,-6.069 1.118,-1.297 -0.416,-2.882 -2.359,-4.888 -1.048,-1.086 -2.236,-2.313 -3.244,-3.681 -2.807,-3.806 -15.004,-11.189 -18.483,-12.303 -3.205,-1.027 -6.819,-4.151 -7.956,-5.52 -0.288,-0.345 -0.645,-0.708 -1.009,-1.075 -0.621,-0.63 -1.56,-1.579 -1.538,-2.048 0.001,-0.029 0.006,-0.11 0.167,-0.244 0.472,-0.389 1.445,-1.076 2.572,-1.871 z"
   id="path130" />
		<path
   d="m 217.561,353.81 c -1.04,1.199 -1.509,2.221 -1.393,3.031 0.342,2.384 -0.082,7.811 -1.011,8.469 -0.942,0.668 -3.218,1.854 -4.878,2.719 -0.811,0.423 -1.514,0.79 -1.934,1.026 -0.347,0.197 -0.917,0.219 -1.315,0.219 -0.278,0 -0.566,-0.011 -0.853,-0.023 -0.308,-0.014 -0.616,-0.026 -0.914,-0.026 -0.619,0 -1.412,0.048 -2.063,0.417 -1.407,0.793 -5.536,5.208 -5.601,7.262 -0.08,2.407 -0.549,5.36 -1.197,6.135 -1.188,1.419 -4.392,4.144 -5.708,4.144 -10e-4,0 -10e-4,0 -10e-4,0 -0.221,-0.021 -0.448,-0.031 -0.676,-0.031 -2.395,0 -3.927,1.111 -3.994,2.9 -0.077,1.928 6.532,7.164 10.478,10.116 l 0.709,0.53 0.413,-0.783 c 0.524,-0.991 0.974,-2.371 1.409,-3.705 0.342,-1.054 0.855,-2.625 1.16,-2.975 0.708,-0.262 2.054,-1.528 5.23,-4.711 0.916,-0.918 1.78,-1.784 2.105,-2.053 0.418,-0.35 1.624,-1.484 3.02,-2.798 2.038,-1.917 4.829,-4.542 5.403,-4.922 0.634,-0.419 1.776,-1.441 3.1,-2.627 0.934,-0.836 1.929,-1.727 2.808,-2.457 2.275,-1.892 5.986,-7.471 6.469,-8.246 0.249,-0.403 1.779,-1.652 2.896,-2.564 2.894,-2.362 3.446,-2.886 3.278,-3.606 -0.262,-1.07 -9.387,-8.839 -9.858,-9.184 -0.248,-0.182 -0.553,-0.273 -0.91,-0.273 -1.756,0 -4.712,2.333 -6.172,4.016 z"
   id="path132" />
		<path
   d="m 259.798,367.931 c 1.968,-0.017 4.064,-0.035 6.243,-0.058 l 3.994,-0.043 c 15.725,-0.182 34.576,-0.541 44.259,-1.418 l 0.903,-0.08 -24.606,-89.262 -4.104,-0.549 -0.584,-62.572 -5.323,7.755 -23.357,-113.569 -1.492,0.044 c -0.048,0.331 -4.784,33.254 -6.864,48.193 -2.082,14.94 -5.926,44.491 -5.965,44.787 l -0.137,1.044 1.903,-0.371 -3.863,23.473 -5.848,-10.896 -1.239,56.908 -9.392,8.965 0.013,0.34 c 0.013,0.376 1.419,37.854 3.569,61.475 0.419,4.6 5.658,8.521 12.288,13.485 4.616,3.457 9.848,7.374 14.126,12.137 l 0.229,0.254 0.341,-0.002 c 0.296,-0.003 0.606,-0.006 0.912,-0.008 z M 258.74,237.789 c 1.027,-0.787 1.86,-1.171 2.628,-1.171 0.001,0 0.003,0 0.005,0 1.08,0.044 2.137,1.132 3.536,3.637 2.116,3.79 1.99,5.841 1.986,5.939 l 0.367,23.361 -11.733,-0.837 -0.186,-23.984 c 0.004,-0.048 0.455,-4.697 3.397,-6.945 z"
   id="path134" />
	</g>
</g>
</svg>
